<svg xmlns="http://www.w3.org/2000/svg" version="1.0" width="1972.000000" height="604.000000" preserveAspectRatio="xMidYMid meet"><rect id="backgroundrect" width="100%" height="100%" x="0" y="0" fill="none" stroke="none"/>
<metadata>
Created by potrace 1.15, written by Peter Selinger 2001-2017
</metadata>

<g class="currentLayer" style=""><title>Layer 1</title><g transform="translate(0,604) scale(0.10000000149011612,-0.10000000149011612) " fill="#ffffff" stroke="none" id="svg_1" class="selected" fill-opacity="1">
<path d="M17710 5589 c-616 -64 -1075 -333 -1290 -759 -78 -155 -110 -312 -111 -536 0 -210 23 -341 84 -493 89 -219 298 -442 537 -569 109 -59 281 -125 669 -256 369 -125 490 -178 599 -259 167 -125 242 -264 242 -447 -1 -245 -129 -445 -355 -555 -169 -82 -349 -105 -662 -87 -203 12 -256 19 -378 47 -33 8 -78 17 -100 20 -47 7 -169 46 -275 87 -100 38 -238 121 -275 166 -52 63 -106 144 -132 199 -14 29 -29 53 -34 53 -5 0 -9 7 -9 15 0 9 -7 18 -15 21 -8 4 -15 12 -15 20 0 8 -4 14 -10 14 -5 0 -12 11 -16 25 -3 14 -9 25 -13 25 -3 0 -17 25 -31 55 -14 30 -28 55 -32 55 -4 0 -10 16 -14 35 -3 19 -10 35 -15 35 -5 0 -12 18 -15 40 -4 22 -10 40 -14 40 -5 0 -11 18 -15 40 -4 22 -10 42 -15 45 -4 3 -11 28 -15 57 -4 29 -11 59 -16 68 -16 30 -32 187 -36 340 -2 85 -7 164 -12 175 -5 11 -12 67 -16 125 -3 57 -10 109 -14 115 -5 5 -12 38 -16 73 -4 34 -11 62 -15 62 -4 0 -11 25 -15 55 -3 30 -10 55 -15 55 -4 0 -11 20 -14 45 -4 25 -11 45 -15 45 -5 0 -11 18 -15 40 -3 22 -11 40 -16 40 -6 0 -10 8 -10 18 0 17 -89 203 -102 212 -3 3 -10 18 -13 33 -4 15 -11 27 -15 27 -4 0 -11 11 -14 25 -4 14 -11 25 -16 25 -6 0 -10 7 -10 15 0 9 -6 18 -14 21 -8 3 -17 16 -20 30 -4 13 -11 24 -16 24 -6 0 -10 7 -10 15 0 9 -7 18 -15 21 -8 4 -15 11 -15 18 0 13 -26 48 -77 105 -18 20 -33 39 -33 43 0 10 -288 298 -298 298 -4 0 -23 15 -43 33 -57 51 -92 77 -105 77 -7 0 -14 7 -18 15 -3 8 -12 15 -21 15 -8 0 -15 4 -15 10 0 5 -11 12 -24 16 -14 3 -27 12 -30 20 -3 8 -12 14 -21 14 -8 0 -15 4 -15 10 0 5 -11 12 -25 16 -14 3 -25 10 -25 14 0 4 -12 11 -27 15 -15 3 -30 10 -33 13 -5 7 -156 82 -232 116 -20 9 -45 16 -57 16 -12 0 -21 4 -21 9 0 6 -20 13 -45 17 -25 3 -45 10 -45 14 0 5 -25 12 -55 15 -30 4 -55 11 -55 15 0 5 -29 12 -65 15 -36 4 -65 11 -65 15 0 5 -48 11 -107 14 -60 4 -116 11 -125 16 -22 12 -318 13 -318 2 0 -5 -50 -12 -112 -16 -62 -4 -115 -10 -118 -15 -3 -5 -35 -12 -72 -15 -38 -4 -68 -11 -68 -16 0 -4 -25 -11 -55 -15 -30 -3 -55 -10 -55 -15 0 -4 -20 -11 -45 -14 -25 -4 -45 -11 -45 -15 0 -5 -18 -11 -40 -15 -22 -3 -40 -10 -40 -15 0 -5 -16 -12 -35 -15 -19 -4 -35 -11 -35 -16 0 -6 -7 -10 -15 -10 -15 0 -136 -60 -145 -72 -3 -3 -18 -10 -33 -13 -15 -4 -27 -11 -27 -15 0 -4 -8 -11 -17 -14 -10 -3 -27 -12 -38 -19 -11 -7 -44 -28 -72 -46 -29 -18 -53 -37 -53 -42 0 -5 -6 -9 -13 -9 -8 0 -23 -8 -34 -17 -39 -34 -82 -68 -103 -83 -29 -19 -310 -299 -310 -308 0 -4 -18 -27 -40 -51 -22 -24 -42 -52 -45 -62 -4 -11 -11 -19 -16 -19 -5 0 -9 -7 -9 -15 0 -7 -6 -18 -13 -22 -16 -10 -77 -100 -77 -114 0 -5 -4 -9 -10 -9 -5 0 -12 -11 -16 -25 -3 -14 -10 -25 -14 -25 -4 0 -11 -12 -15 -27 -3 -15 -10 -30 -13 -33 -13 -9 -52 -89 -52 -104 0 -9 -4 -16 -10 -16 -5 0 -10 -5 -10 -11 0 -12 -23 -68 -46 -111 -8 -14 -14 -36 -14 -47 0 -12 -4 -21 -9 -21 -6 0 -13 -20 -17 -45 -3 -25 -10 -45 -14 -45 -5 0 -12 -25 -15 -55 -4 -30 -11 -55 -15 -55 -4 0 -11 -28 -15 -62 -4 -35 -11 -68 -16 -73 -4 -6 -11 -59 -15 -118 -4 -59 -11 -110 -15 -113 -12 -7 -12 -314 -1 -314 5 0 12 -50 16 -112 4 -62 10 -115 15 -118 5 -3 12 -35 15 -72 4 -38 11 -68 16 -68 4 0 11 -25 15 -55 3 -30 10 -55 15 -55 4 0 11 -20 14 -45 4 -25 11 -45 17 -45 5 0 9 -10 9 -23 0 -13 7 -32 15 -43 8 -10 15 -27 15 -36 0 -10 4 -18 10 -18 5 0 12 -16 16 -35 3 -19 10 -35 15 -35 5 0 9 -5 9 -11 0 -13 41 -101 51 -109 4 -3 10 -16 14 -30 4 -14 10 -27 14 -30 9 -7 30 -41 41 -67 5 -13 14 -23 19 -23 5 0 12 -11 15 -25 4 -14 11 -25 16 -25 6 0 10 -6 10 -14 0 -8 7 -16 15 -20 8 -3 15 -12 15 -21 0 -8 3 -15 8 -15 4 0 18 -17 32 -38 14 -20 27 -39 30 -42 3 -3 23 -27 45 -55 22 -27 57 -66 79 -85 49 -44 82 -77 126 -126 19 -22 58 -57 85 -79 28 -22 52 -42 55 -45 3 -3 22 -16 42 -30 21 -14 38 -28 38 -32 0 -5 7 -8 15 -8 9 0 18 -7 21 -15 4 -8 12 -15 20 -15 8 0 14 -4 14 -10 0 -5 11 -12 25 -16 14 -3 25 -10 25 -14 0 -5 20 -19 45 -31 25 -12 45 -26 45 -30 0 -4 14 -10 30 -14 17 -4 30 -10 30 -15 0 -5 14 -11 30 -15 17 -4 30 -11 30 -16 0 -5 6 -9 13 -9 6 -1 30 -9 52 -20 22 -11 46 -19 53 -20 6 0 12 -4 12 -10 0 -5 8 -10 18 -10 9 0 26 -7 36 -15 11 -8 30 -15 43 -15 13 0 23 -4 23 -9 0 -6 20 -13 45 -17 25 -3 45 -10 45 -14 0 -5 25 -12 55 -15 30 -4 55 -11 55 -15 0 -5 30 -12 68 -16 37 -3 69 -10 72 -15 3 -4 53 -11 110 -14 58 -4 114 -11 125 -16 13 -6 743 -8 1960 -6 1984 4 2046 5 2218 43 40 8 124 22 187 29 615 72 1039 341 1254 796 128 270 162 640 86 944 -55 218 -226 454 -440 606 -186 133 -327 193 -878 375 -334 110 -448 158 -546 228 -161 115 -228 241 -227 429 1 158 43 265 147 372 206 215 625 288 957 168 163 -58 294 -138 407 -249 l75 -73 255 280 c140 154 255 284 255 288 0 14 -129 118 -218 175 -344 225 -847 340 -1287 295z m-3780 -899 c52 -8 97 -17 100 -21 3 -3 29 -10 57 -14 29 -4 55 -11 58 -15 3 -5 23 -11 45 -15 22 -4 42 -10 45 -15 3 -4 21 -11 40 -14 19 -4 35 -11 35 -15 0 -5 16 -12 35 -15 19 -4 35 -10 35 -14 0 -4 25 -18 55 -32 30 -14 55 -28 55 -31 0 -4 11 -10 25 -13 14 -4 25 -11 25 -16 0 -6 7 -10 15 -10 8 0 15 -5 15 -10 0 -6 8 -14 18 -17 9 -4 31 -20 47 -35 17 -15 33 -28 38 -28 10 0 187 -177 187 -187 0 -5 14 -22 30 -40 17 -18 30 -37 30 -43 0 -6 7 -13 15 -16 8 -4 15 -12 15 -20 0 -8 4 -14 10 -14 5 0 12 -11 16 -25 3 -14 9 -25 13 -25 3 0 17 -25 31 -55 14 -30 28 -55 32 -55 4 0 10 -16 14 -35 3 -19 10 -35 15 -35 5 0 12 -18 15 -40 4 -22 10 -40 15 -40 4 0 11 -20 15 -45 3 -25 10 -45 14 -45 5 0 11 -23 15 -52 4 -29 11 -59 16 -68 16 -30 32 -189 36 -352 2 -93 8 -168 12 -168 4 0 11 -50 15 -112 4 -62 10 -115 15 -118 5 -3 12 -35 15 -72 4 -38 11 -68 16 -68 4 0 11 -25 15 -55 3 -30 10 -55 15 -55 4 0 11 -20 14 -45 4 -25 11 -45 15 -45 5 0 11 -18 15 -40 3 -22 10 -40 15 -40 5 0 12 -16 15 -35 4 -19 11 -35 16 -35 6 0 10 -7 10 -15 0 -15 59 -135 71 -145 4 -3 10 -16 14 -30 4 -14 10 -27 14 -30 9 -7 30 -41 41 -67 5 -13 14 -23 19 -23 5 0 12 -11 15 -25 4 -14 11 -25 16 -25 6 0 10 -7 10 -15 0 -9 7 -18 15 -21 8 -4 15 -12 15 -19 0 -6 10 -23 23 -37 29 -33 80 -97 91 -116 5 -8 28 -34 52 -57 24 -23 44 -45 44 -48 0 -4 -533 -7 -1185 -7 -652 0 -1185 4 -1185 9 0 4 -42 11 -92 15 -51 4 -95 11 -98 15 -3 5 -31 11 -62 15 -32 4 -58 11 -58 16 0 5 -20 12 -45 16 -25 3 -45 10 -45 14 0 5 -18 11 -40 15 -22 4 -40 10 -40 15 0 4 -16 11 -35 14 -19 4 -35 11 -35 16 0 6 -6 10 -14 10 -8 0 -21 6 -28 13 -7 6 -31 21 -53 32 -22 11 -46 26 -53 32 -7 7 -20 13 -28 13 -8 0 -14 5 -14 10 0 6 -8 14 -17 17 -10 4 -31 19 -46 35 -16 15 -32 28 -37 28 -11 0 -190 179 -190 190 0 5 -13 22 -30 38 -16 17 -30 35 -30 42 0 6 -7 13 -15 16 -8 4 -15 12 -15 19 0 8 -6 20 -12 27 -12 13 -22 29 -65 110 -10 18 -21 34 -25 36 -4 2 -10 19 -14 38 -3 19 -10 34 -14 34 -5 0 -11 18 -15 40 -4 22 -11 40 -15 40 -5 0 -12 20 -16 45 -3 25 -10 45 -14 45 -5 0 -12 25 -15 55 -4 30 -11 58 -15 60 -5 3 -12 46 -16 95 -3 50 -11 93 -15 96 -12 7 -12 351 0 358 5 3 12 49 16 101 4 52 10 95 15 95 4 0 11 25 15 55 3 30 10 55 15 55 4 0 11 20 14 45 4 25 11 45 15 45 5 0 11 18 15 40 3 22 10 40 15 40 5 0 12 16 15 35 4 19 10 35 14 35 4 0 13 12 19 28 15 36 55 103 71 120 6 7 12 19 12 27 0 7 7 15 15 19 8 3 15 10 15 16 0 6 13 25 30 43 16 18 30 35 30 40 0 9 179 187 188 187 4 0 21 14 39 30 18 17 37 30 43 30 6 0 13 7 16 15 4 8 12 15 20 15 8 0 14 4 14 10 0 5 11 12 25 16 14 3 25 10 25 14 0 4 11 11 25 14 14 4 25 10 25 15 0 5 14 12 30 16 17 4 30 11 30 15 0 5 16 12 35 16 19 3 35 10 35 15 0 4 16 11 35 15 19 3 37 10 40 14 3 5 23 11 45 15 22 4 42 10 45 15 3 4 29 11 58 15 28 4 57 11 62 15 6 4 44 11 85 15 41 4 84 11 95 16 29 12 354 4 465 -11z" id="svg_2" fill="#ffffff" fill-opacity="1"/>
<path d="M410 3275 l0 -2215 400 0 400 0 0 1105 c0 608 3 1105 8 1104 4 0 441 -497 972 -1104 l965 -1104 558 -1 c306 0 557 2 557 5 0 4 -1909 2071 -2164 2343 l-31 33 190 187 c539 529 1875 1853 1875 1858 0 2 -241 4 -535 4 l-534 0 -922 -952 c-507 -524 -925 -954 -930 -956 -5 -2 -9 397 -9 952 l0 956 -400 0 -400 0 0 -2215z" id="svg_3" fill="#ffffff" fill-opacity="1"/>
<path d="M4720 3275 l0 -2215 1525 0 1525 0 0 350 0 350 -1130 0 -1130 0 0 620 0 620 1015 0 1015 0 0 340 0 340 -1015 0 -1015 0 0 555 0 555 1070 0 1070 0 0 350 0 350 -1465 0 -1465 0 0 -2215z" id="svg_4" fill="#ffffff" fill-opacity="1"/>
<path d="M8060 5140 l0 -350 680 0 680 0 0 -1865 0 -1865 400 0 400 0 0 1865 0 1865 675 0 675 0 0 350 0 350 -1755 0 -1755 0 0 -350z" id="svg_5" fill="#ffffff" fill-opacity="1"/>
</g></g></svg>